# xmcd CD database file
# Generated: Sun Apr 8 18:35:14 2001 by KSCD
# 
# Track frame offsets:
#       150
#       13340
#       29235
#       40817
#       50820
#       60970
#       75812
#       87237
#       103787
#       116382
#       128077
#       141717
#       152437
#       163732
#       173645
#       186417
#       200625
#       212050
#       222460
#       235847
#       247297
#       260577
#
# Disc length: 3634 seconds
#
# Revision: 4
# Processed by: cddbd v1.4b41PL1 Copyright (c) Steve Scherf et al.
# Submitted via: Kscd 1.3.0
#
DISCID=470e3016
DTITLE=Various Artist - Nattsudds-Röjare/Rhythm and Booze Blasters
DYEAR=1900
DGENRE=
TTITLE0=Aldus Roger - One Scotch, One Bourbon, One Beer
TTITLE1=New Rotics - Smoke, Smoke, Smoke
TTITLE2=Johnnie Allan - Let's Go Get Drunk
TTITLE3=Tommy Tucker - Drunk
TTITLE4=Leroi Brothers - Rhythm and Booze
TTITLE5=Stick McGhee - Drinkin' Wine
TTITLE6=Lil Bob and The Lollipops - I Got Loaded
TTITLE7=Cub Koda - Let's Get High
TTITLE8=Four Gators (Willis Jackson) - Wine-O-Wine
TTITLE9=Screaming Jay Hawkins - Baptize Me In Wine
TTITLE10=Big Three Trio - Cigareetes, Whuskey And Wild Women
TTITLE11=Alexandros Perros and The Lonestars - Alcohol
TTITLE12=Peppermint Harris - I Got Loaded
TTITLE13=Papa Lightfoot - Wine, Women, Whiskey
TTITLE14=Ed Kirby - Mean Old Gin
TTITLE15=Eddie Snow - Who's Been Drinking My Wine
TTITLE16=Ted and The Talltops - Double Shot
TTITLE17=J.B. Lenoir - Give Me One More Shot
TTITLE18=G.M. Hooker - Bad Bad Whiskey
TTITLE19=Billy Love - Juiced
TTITLE20=Simon Brehm - Dunder Och Snus
TTITLE21=Anita Lindblom - Cigarettes, Cigarettes
EXTD=
EXTT0=
EXTT1=
EXTT2=
EXTT3=
EXTT4=
EXTT5=
EXTT6=
EXTT7=
EXTT8=
EXTT9=
EXTT10=
EXTT11=
EXTT12=
EXTT13=
EXTT14=
EXTT15=
EXTT16=
EXTT17=
EXTT18=
EXTT19=
EXTT20=
EXTT21=
PLAYORDER=
